<svg version="1.1" xmlns="http://www.w3.org/2000/svg" xmlns:xlink="http://www.w3.org/1999/xlink" width="512" height="512" viewBox="0,0,256,256"><g fill="#7e7e7e" fill-rule="nonzero" stroke="none" stroke-width="1" stroke-linecap="butt" stroke-linejoin="miter" stroke-miterlimit="10" stroke-dasharray="" stroke-dashoffset="0" font-family="none" font-weight="none" font-size="none" text-anchor="none" style="mix-blend-mode: normal"><g transform="scale(10.66667,10.66667)"><g id="_01_align_center"><path d="M18,6c0,-3.31371 -2.68629,-6 -6,-6c-3.31371,0 -6,2.68629 -6,6h-6v15c0,1.65685 1.34315,3 3,3h18c1.65685,0 3,-1.34315 3,-3v-15zM12,2c2.20914,0 4,1.79086 4,4h-8c0,-2.20914 1.79086,-4 4,-4zM22,21c0,0.55228 -0.44772,1 -1,1h-18c-0.55228,0 -1,-0.44772 -1,-1v-13h4v2h2v-2h8v2h2v-2h4z"></path></g></g></g></svg>